<svg id="visual" viewBox="0 0 900 600" width="900" height="600" xmlns="http://www.w3.org/2000/svg" xmlns:xlink="http://www.w3.org/1999/xlink" version="1.1"><rect x="0" y="0" width="900" height="600" fill="#001220"></rect><defs><linearGradient id="grad1_0" x1="33.3%" y1="0%" x2="100%" y2="100%"><stop offset="20%" stop-color="#001220" stop-opacity="1"></stop><stop offset="80%" stop-color="#001220" stop-opacity="1"></stop></linearGradient></defs><defs><linearGradient id="grad2_0" x1="0%" y1="0%" x2="66.7%" y2="100%"><stop offset="20%" stop-color="#001220" stop-opacity="1"></stop><stop offset="80%" stop-color="#001220" stop-opacity="1"></stop></linearGradient></defs><g transform="translate(900, 0)"><path d="M0 486.7C-64.2 481 -128.5 475.3 -186.3 449.7C-244.1 424.1 -295.4 378.6 -327.4 327.4C-359.4 276.2 -372.1 219.3 -395.4 163.8C-418.8 108.3 -452.8 54.1 -486.7 0L0 0Z" fill="#d9952f"></path></g><g transform="translate(0, 600)"><path d="M0 -486.7C68.9 -485.5 137.9 -484.3 186.3 -449.7C234.6 -415.1 262.4 -347.1 297 -297C331.5 -246.8 372.8 -214.5 405.6 -168C438.3 -121.5 462.5 -60.7 486.7 0L0 0Z" fill="#d9952f"></path></g></svg>  