<svg id="visual" viewBox="0 0 900 600" width="900" height="600" xmlns="http://www.w3.org/2000/svg" xmlns:xlink="http://www.w3.org/1999/xlink" version="1.1"><path d="M0 85L13.7 82C27.3 79 54.7 73 82 75C109.3 77 136.7 87 163.8 92C191 97 218 97 245.2 90C272.3 83 299.7 69 327 70C354.3 71 381.7 87 409 97C436.3 107 463.7 111 491 105C518.3 99 545.7 83 573 76C600.3 69 627.7 71 654.8 77C682 83 709 93 736.2 92C763.3 91 790.7 79 818 70C845.3 61 872.7 55 886.3 52L900 49L900 0L886.3 0C872.7 0 845.3 0 818 0C790.7 0 763.3 0 736.2 0C709 0 682 0 654.8 0C627.7 0 600.3 0 573 0C545.7 0 518.3 0 491 0C463.7 0 436.3 0 409 0C381.7 0 354.3 0 327 0C299.7 0 272.3 0 245.2 0C218 0 191 0 163.8 0C136.7 0 109.3 0 82 0C54.7 0 27.3 0 13.7 0L0 0Z" fill="#a69f0e"></path><path d="M0 199L13.7 217C27.3 235 54.7 271 82 276C109.3 281 136.7 255 163.8 240C191 225 218 221 245.2 228C272.3 235 299.7 253 327 250C354.3 247 381.7 223 409 209C436.3 195 463.7 191 491 186C518.3 181 545.7 175 573 193C600.3 211 627.7 253 654.8 265C682 277 709 259 736.2 261C763.3 263 790.7 285 818 292C845.3 299 872.7 291 886.3 287L900 283L900 47L886.3 50C872.7 53 845.3 59 818 68C790.7 77 763.3 89 736.2 90C709 91 682 81 654.8 75C627.7 69 600.3 67 573 74C545.7 81 518.3 97 491 103C463.7 109 436.3 105 409 95C381.7 85 354.3 69 327 68C299.7 67 272.3 81 245.2 88C218 95 191 95 163.8 90C136.7 85 109.3 75 82 73C54.7 71 27.3 77 13.7 80L0 83Z" fill="#e5dc31"></path><path d="M0 487L13.7 474C27.3 461 54.7 435 82 436C109.3 437 136.7 465 163.8 469C191 473 218 453 245.2 431C272.3 409 299.7 385 327 377C354.3 369 381.7 377 409 380C436.3 383 463.7 381 491 386C518.3 391 545.7 403 573 406C600.3 409 627.7 403 654.8 395C682 387 709 377 736.2 377C763.3 377 790.7 387 818 387C845.3 387 872.7 377 886.3 372L900 367L900 281L886.3 285C872.7 289 845.3 297 818 290C790.7 283 763.3 261 736.2 259C709 257 682 275 654.8 263C627.7 251 600.3 209 573 191C545.7 173 518.3 179 491 184C463.7 189 436.3 193 409 207C381.7 221 354.3 245 327 248C299.7 251 272.3 233 245.2 226C218 219 191 223 163.8 238C136.7 253 109.3 279 82 274C54.7 269 27.3 233 13.7 215L0 197Z" fill="#ece568"></path><path d="M0 535L13.7 527C27.3 519 54.7 503 82 505C109.3 507 136.7 527 163.8 524C191 521 218 495 245.2 475C272.3 455 299.7 441 327 439C354.3 437 381.7 447 409 453C436.3 459 463.7 461 491 471C518.3 481 545.7 499 573 503C600.3 507 627.7 497 654.8 489C682 481 709 475 736.2 475C763.3 475 790.7 481 818 478C845.3 475 872.7 463 886.3 457L900 451L900 365L886.3 370C872.7 375 845.3 385 818 385C790.7 385 763.3 375 736.2 375C709 375 682 385 654.8 393C627.7 401 600.3 407 573 404C545.7 401 518.3 389 491 384C463.7 379 436.3 381 409 378C381.7 375 354.3 367 327 375C299.7 383 272.3 407 245.2 429C218 451 191 471 163.8 467C136.7 463 109.3 435 82 434C54.7 433 27.3 459 13.7 472L0 485Z" fill="#e5dc31"></path><path d="M0 601L13.7 601C27.3 601 54.7 601 82 601C109.3 601 136.7 601 163.8 601C191 601 218 601 245.2 601C272.3 601 299.7 601 327 601C354.3 601 381.7 601 409 601C436.3 601 463.7 601 491 601C518.3 601 545.7 601 573 601C600.3 601 627.7 601 654.8 601C682 601 709 601 736.2 601C763.3 601 790.7 601 818 601C845.3 601 872.7 601 886.3 601L900 601L900 449L886.3 455C872.7 461 845.3 473 818 476C790.7 479 763.3 473 736.2 473C709 473 682 479 654.8 487C627.7 495 600.3 505 573 501C545.7 497 518.3 479 491 469C463.7 459 436.3 457 409 451C381.7 445 354.3 435 327 437C299.7 439 272.3 453 245.2 473C218 493 191 519 163.8 522C136.7 525 109.3 505 82 503C54.7 501 27.3 517 13.7 525L0 533Z" fill="#a69f0e"></path></svg>